<mxfile host="app.diagrams.net" agent="Mozilla/5.0 (Windows NT 10.0; Win64; x64) AppleWebKit/537.36 (KHTML, like Gecko) Chrome/130.0.0.0 Safari/537.36" version="24.8.3">
  <diagram id="R2lEEEUBdFMjLlhIrx00" name="Page-1">
    <mxGraphModel dx="2161" dy="558" grid="1" gridSize="10" guides="1" tooltips="1" connect="1" arrows="1" fold="1" page="1" pageScale="1" pageWidth="850" pageHeight="1100" math="0" shadow="0" extFonts="Permanent Marker^https://fonts.googleapis.com/css?family=Permanent+Marker">
      <root>
        <mxCell id="0" />
        <mxCell id="1" parent="0" />
        <mxCell id="I1tFR8Xuxyrx6pCMJgD5-11" style="edgeStyle=orthogonalEdgeStyle;rounded=0;orthogonalLoop=1;jettySize=auto;html=1;" parent="1" source="I1tFR8Xuxyrx6pCMJgD5-1" target="I1tFR8Xuxyrx6pCMJgD5-10" edge="1">
          <mxGeometry relative="1" as="geometry" />
        </mxCell>
        <mxCell id="I1tFR8Xuxyrx6pCMJgD5-23" style="edgeStyle=orthogonalEdgeStyle;rounded=0;orthogonalLoop=1;jettySize=auto;html=1;" parent="1" source="I1tFR8Xuxyrx6pCMJgD5-1" target="I1tFR8Xuxyrx6pCMJgD5-21" edge="1">
          <mxGeometry relative="1" as="geometry" />
        </mxCell>
        <mxCell id="I1tFR8Xuxyrx6pCMJgD5-24" style="edgeStyle=orthogonalEdgeStyle;rounded=0;orthogonalLoop=1;jettySize=auto;html=1;entryX=0.5;entryY=1;entryDx=0;entryDy=0;" parent="1" source="I1tFR8Xuxyrx6pCMJgD5-1" target="I1tFR8Xuxyrx6pCMJgD5-20" edge="1">
          <mxGeometry relative="1" as="geometry" />
        </mxCell>
        <mxCell id="I1tFR8Xuxyrx6pCMJgD5-27" style="edgeStyle=orthogonalEdgeStyle;rounded=0;orthogonalLoop=1;jettySize=auto;html=1;entryX=1;entryY=0.5;entryDx=0;entryDy=0;" parent="1" source="I1tFR8Xuxyrx6pCMJgD5-1" target="I1tFR8Xuxyrx6pCMJgD5-26" edge="1">
          <mxGeometry relative="1" as="geometry" />
        </mxCell>
        <mxCell id="I1tFR8Xuxyrx6pCMJgD5-35" style="edgeStyle=orthogonalEdgeStyle;rounded=0;orthogonalLoop=1;jettySize=auto;html=1;entryX=1;entryY=0.5;entryDx=0;entryDy=0;" parent="1" source="I1tFR8Xuxyrx6pCMJgD5-1" target="I1tFR8Xuxyrx6pCMJgD5-29" edge="1">
          <mxGeometry relative="1" as="geometry">
            <Array as="points">
              <mxPoint x="90" y="205" />
              <mxPoint x="30" y="205" />
              <mxPoint x="30" y="250" />
            </Array>
          </mxGeometry>
        </mxCell>
        <mxCell id="I1tFR8Xuxyrx6pCMJgD5-36" style="edgeStyle=orthogonalEdgeStyle;rounded=0;orthogonalLoop=1;jettySize=auto;html=1;entryX=0.5;entryY=0;entryDx=0;entryDy=0;" parent="1" source="I1tFR8Xuxyrx6pCMJgD5-1" target="I1tFR8Xuxyrx6pCMJgD5-30" edge="1">
          <mxGeometry relative="1" as="geometry">
            <Array as="points">
              <mxPoint x="90" y="280" />
            </Array>
          </mxGeometry>
        </mxCell>
        <mxCell id="I1tFR8Xuxyrx6pCMJgD5-38" style="edgeStyle=orthogonalEdgeStyle;rounded=0;orthogonalLoop=1;jettySize=auto;html=1;entryX=0.5;entryY=0;entryDx=0;entryDy=0;" parent="1" source="I1tFR8Xuxyrx6pCMJgD5-1" target="I1tFR8Xuxyrx6pCMJgD5-37" edge="1">
          <mxGeometry relative="1" as="geometry" />
        </mxCell>
        <mxCell id="I1tFR8Xuxyrx6pCMJgD5-1" value="Cliente" style="whiteSpace=wrap;html=1;align=center;" parent="1" vertex="1">
          <mxGeometry x="40" y="140" width="100" height="40" as="geometry" />
        </mxCell>
        <mxCell id="I1tFR8Xuxyrx6pCMJgD5-43" style="edgeStyle=orthogonalEdgeStyle;rounded=0;orthogonalLoop=1;jettySize=auto;html=1;entryX=0.5;entryY=1;entryDx=0;entryDy=0;" parent="1" source="I1tFR8Xuxyrx6pCMJgD5-3" target="I1tFR8Xuxyrx6pCMJgD5-39" edge="1">
          <mxGeometry relative="1" as="geometry" />
        </mxCell>
        <mxCell id="I1tFR8Xuxyrx6pCMJgD5-44" style="edgeStyle=orthogonalEdgeStyle;rounded=0;orthogonalLoop=1;jettySize=auto;html=1;entryX=0.5;entryY=1;entryDx=0;entryDy=0;" parent="1" source="I1tFR8Xuxyrx6pCMJgD5-3" target="I1tFR8Xuxyrx6pCMJgD5-40" edge="1">
          <mxGeometry relative="1" as="geometry">
            <Array as="points">
              <mxPoint x="450" y="120" />
              <mxPoint x="590" y="120" />
            </Array>
          </mxGeometry>
        </mxCell>
        <mxCell id="I1tFR8Xuxyrx6pCMJgD5-45" style="edgeStyle=orthogonalEdgeStyle;rounded=0;orthogonalLoop=1;jettySize=auto;html=1;entryX=0.5;entryY=1;entryDx=0;entryDy=0;" parent="1" source="I1tFR8Xuxyrx6pCMJgD5-3" target="I1tFR8Xuxyrx6pCMJgD5-41" edge="1">
          <mxGeometry relative="1" as="geometry" />
        </mxCell>
        <mxCell id="I1tFR8Xuxyrx6pCMJgD5-47" style="edgeStyle=orthogonalEdgeStyle;rounded=0;orthogonalLoop=1;jettySize=auto;html=1;entryX=0.5;entryY=1;entryDx=0;entryDy=0;" parent="1" source="I1tFR8Xuxyrx6pCMJgD5-3" target="I1tFR8Xuxyrx6pCMJgD5-42" edge="1">
          <mxGeometry relative="1" as="geometry">
            <Array as="points">
              <mxPoint x="450" y="120" />
              <mxPoint x="290" y="120" />
            </Array>
          </mxGeometry>
        </mxCell>
        <mxCell id="I1tFR8Xuxyrx6pCMJgD5-3" value="Turno" style="whiteSpace=wrap;html=1;align=center;" parent="1" vertex="1">
          <mxGeometry x="400" y="140" width="100" height="40" as="geometry" />
        </mxCell>
        <mxCell id="I1tFR8Xuxyrx6pCMJgD5-17" style="edgeStyle=orthogonalEdgeStyle;rounded=0;orthogonalLoop=1;jettySize=auto;html=1;entryX=0.5;entryY=1;entryDx=0;entryDy=0;" parent="1" source="I1tFR8Xuxyrx6pCMJgD5-4" target="I1tFR8Xuxyrx6pCMJgD5-16" edge="1">
          <mxGeometry relative="1" as="geometry" />
        </mxCell>
        <mxCell id="I1tFR8Xuxyrx6pCMJgD5-66" style="edgeStyle=orthogonalEdgeStyle;rounded=0;orthogonalLoop=1;jettySize=auto;html=1;entryX=0.5;entryY=0;entryDx=0;entryDy=0;" parent="1" source="I1tFR8Xuxyrx6pCMJgD5-4" target="I1tFR8Xuxyrx6pCMJgD5-51" edge="1">
          <mxGeometry relative="1" as="geometry" />
        </mxCell>
        <mxCell id="I1tFR8Xuxyrx6pCMJgD5-67" style="edgeStyle=orthogonalEdgeStyle;rounded=0;orthogonalLoop=1;jettySize=auto;html=1;entryX=0.5;entryY=0;entryDx=0;entryDy=0;" parent="1" source="I1tFR8Xuxyrx6pCMJgD5-4" target="I1tFR8Xuxyrx6pCMJgD5-48" edge="1">
          <mxGeometry relative="1" as="geometry" />
        </mxCell>
        <mxCell id="I1tFR8Xuxyrx6pCMJgD5-68" style="edgeStyle=orthogonalEdgeStyle;rounded=0;orthogonalLoop=1;jettySize=auto;html=1;entryX=0.5;entryY=0;entryDx=0;entryDy=0;" parent="1" source="I1tFR8Xuxyrx6pCMJgD5-4" target="I1tFR8Xuxyrx6pCMJgD5-52" edge="1">
          <mxGeometry relative="1" as="geometry" />
        </mxCell>
        <mxCell id="I1tFR8Xuxyrx6pCMJgD5-69" style="edgeStyle=orthogonalEdgeStyle;rounded=0;orthogonalLoop=1;jettySize=auto;html=1;" parent="1" source="I1tFR8Xuxyrx6pCMJgD5-4" target="I1tFR8Xuxyrx6pCMJgD5-54" edge="1">
          <mxGeometry relative="1" as="geometry" />
        </mxCell>
        <mxCell id="I1tFR8Xuxyrx6pCMJgD5-70" style="edgeStyle=orthogonalEdgeStyle;rounded=0;orthogonalLoop=1;jettySize=auto;html=1;" parent="1" source="I1tFR8Xuxyrx6pCMJgD5-4" target="I1tFR8Xuxyrx6pCMJgD5-53" edge="1">
          <mxGeometry relative="1" as="geometry" />
        </mxCell>
        <mxCell id="I1tFR8Xuxyrx6pCMJgD5-71" style="edgeStyle=orthogonalEdgeStyle;rounded=0;orthogonalLoop=1;jettySize=auto;html=1;entryX=0;entryY=0.5;entryDx=0;entryDy=0;" parent="1" source="I1tFR8Xuxyrx6pCMJgD5-4" target="I1tFR8Xuxyrx6pCMJgD5-50" edge="1">
          <mxGeometry relative="1" as="geometry" />
        </mxCell>
        <mxCell id="I1tFR8Xuxyrx6pCMJgD5-72" style="edgeStyle=orthogonalEdgeStyle;rounded=0;orthogonalLoop=1;jettySize=auto;html=1;entryX=1;entryY=0.5;entryDx=0;entryDy=0;" parent="1" source="I1tFR8Xuxyrx6pCMJgD5-4" target="I1tFR8Xuxyrx6pCMJgD5-49" edge="1">
          <mxGeometry relative="1" as="geometry">
            <Array as="points">
              <mxPoint x="350" y="370" />
              <mxPoint x="350" y="460" />
            </Array>
          </mxGeometry>
        </mxCell>
        <mxCell id="n_TuMclA5trgmQPyPetW-2" style="edgeStyle=orthogonalEdgeStyle;rounded=0;orthogonalLoop=1;jettySize=auto;html=1;exitX=1;exitY=0;exitDx=0;exitDy=0;entryX=0.5;entryY=1;entryDx=0;entryDy=0;" edge="1" parent="1" source="I1tFR8Xuxyrx6pCMJgD5-4" target="I1tFR8Xuxyrx6pCMJgD5-13">
          <mxGeometry relative="1" as="geometry">
            <Array as="points">
              <mxPoint x="500" y="290" />
              <mxPoint x="620" y="290" />
            </Array>
          </mxGeometry>
        </mxCell>
        <mxCell id="I1tFR8Xuxyrx6pCMJgD5-4" value="Empleado" style="whiteSpace=wrap;html=1;align=center;" parent="1" vertex="1">
          <mxGeometry x="400" y="350" width="100" height="40" as="geometry" />
        </mxCell>
        <mxCell id="I1tFR8Xuxyrx6pCMJgD5-82" style="edgeStyle=orthogonalEdgeStyle;rounded=0;orthogonalLoop=1;jettySize=auto;html=1;" parent="1" source="I1tFR8Xuxyrx6pCMJgD5-8" target="I1tFR8Xuxyrx6pCMJgD5-81" edge="1">
          <mxGeometry relative="1" as="geometry" />
        </mxCell>
        <mxCell id="I1tFR8Xuxyrx6pCMJgD5-83" style="edgeStyle=orthogonalEdgeStyle;rounded=0;orthogonalLoop=1;jettySize=auto;html=1;entryX=0.5;entryY=1;entryDx=0;entryDy=0;" parent="1" source="I1tFR8Xuxyrx6pCMJgD5-8" target="I1tFR8Xuxyrx6pCMJgD5-75" edge="1">
          <mxGeometry relative="1" as="geometry" />
        </mxCell>
        <mxCell id="I1tFR8Xuxyrx6pCMJgD5-85" style="edgeStyle=orthogonalEdgeStyle;rounded=0;orthogonalLoop=1;jettySize=auto;html=1;" parent="1" source="I1tFR8Xuxyrx6pCMJgD5-8" target="I1tFR8Xuxyrx6pCMJgD5-73" edge="1">
          <mxGeometry relative="1" as="geometry" />
        </mxCell>
        <mxCell id="I1tFR8Xuxyrx6pCMJgD5-86" style="edgeStyle=orthogonalEdgeStyle;rounded=0;orthogonalLoop=1;jettySize=auto;html=1;" parent="1" source="I1tFR8Xuxyrx6pCMJgD5-8" target="I1tFR8Xuxyrx6pCMJgD5-76" edge="1">
          <mxGeometry relative="1" as="geometry" />
        </mxCell>
        <mxCell id="I1tFR8Xuxyrx6pCMJgD5-87" style="edgeStyle=orthogonalEdgeStyle;rounded=0;orthogonalLoop=1;jettySize=auto;html=1;" parent="1" source="I1tFR8Xuxyrx6pCMJgD5-8" target="I1tFR8Xuxyrx6pCMJgD5-74" edge="1">
          <mxGeometry relative="1" as="geometry" />
        </mxCell>
        <mxCell id="I1tFR8Xuxyrx6pCMJgD5-88" style="edgeStyle=orthogonalEdgeStyle;rounded=0;orthogonalLoop=1;jettySize=auto;html=1;entryX=0;entryY=0.5;entryDx=0;entryDy=0;" parent="1" source="I1tFR8Xuxyrx6pCMJgD5-8" target="I1tFR8Xuxyrx6pCMJgD5-77" edge="1">
          <mxGeometry relative="1" as="geometry" />
        </mxCell>
        <mxCell id="I1tFR8Xuxyrx6pCMJgD5-89" style="edgeStyle=orthogonalEdgeStyle;rounded=0;orthogonalLoop=1;jettySize=auto;html=1;entryX=0;entryY=0.5;entryDx=0;entryDy=0;" parent="1" source="I1tFR8Xuxyrx6pCMJgD5-8" target="I1tFR8Xuxyrx6pCMJgD5-78" edge="1">
          <mxGeometry relative="1" as="geometry" />
        </mxCell>
        <mxCell id="I1tFR8Xuxyrx6pCMJgD5-90" style="edgeStyle=orthogonalEdgeStyle;rounded=0;orthogonalLoop=1;jettySize=auto;html=1;entryX=0.5;entryY=0;entryDx=0;entryDy=0;" parent="1" source="I1tFR8Xuxyrx6pCMJgD5-8" target="I1tFR8Xuxyrx6pCMJgD5-79" edge="1">
          <mxGeometry relative="1" as="geometry" />
        </mxCell>
        <mxCell id="I1tFR8Xuxyrx6pCMJgD5-91" style="edgeStyle=orthogonalEdgeStyle;rounded=0;orthogonalLoop=1;jettySize=auto;html=1;entryX=0.5;entryY=0;entryDx=0;entryDy=0;" parent="1" source="I1tFR8Xuxyrx6pCMJgD5-8" target="I1tFR8Xuxyrx6pCMJgD5-80" edge="1">
          <mxGeometry relative="1" as="geometry" />
        </mxCell>
        <mxCell id="I1tFR8Xuxyrx6pCMJgD5-8" value="Historial de turnos" style="whiteSpace=wrap;html=1;align=center;" parent="1" vertex="1">
          <mxGeometry x="710" y="140" width="100" height="40" as="geometry" />
        </mxCell>
        <mxCell id="I1tFR8Xuxyrx6pCMJgD5-12" style="edgeStyle=orthogonalEdgeStyle;rounded=0;orthogonalLoop=1;jettySize=auto;html=1;entryX=0;entryY=0.5;entryDx=0;entryDy=0;" parent="1" source="I1tFR8Xuxyrx6pCMJgD5-10" target="I1tFR8Xuxyrx6pCMJgD5-3" edge="1">
          <mxGeometry relative="1" as="geometry" />
        </mxCell>
        <mxCell id="I1tFR8Xuxyrx6pCMJgD5-10" value="pide" style="shape=rhombus;perimeter=rhombusPerimeter;whiteSpace=wrap;html=1;align=center;" parent="1" vertex="1">
          <mxGeometry x="200" y="130" width="120" height="60" as="geometry" />
        </mxCell>
        <mxCell id="I1tFR8Xuxyrx6pCMJgD5-15" style="edgeStyle=orthogonalEdgeStyle;rounded=0;orthogonalLoop=1;jettySize=auto;html=1;" parent="1" source="I1tFR8Xuxyrx6pCMJgD5-13" target="I1tFR8Xuxyrx6pCMJgD5-8" edge="1">
          <mxGeometry relative="1" as="geometry" />
        </mxCell>
        <mxCell id="I1tFR8Xuxyrx6pCMJgD5-13" value="genera" style="shape=rhombus;perimeter=rhombusPerimeter;whiteSpace=wrap;html=1;align=center;" parent="1" vertex="1">
          <mxGeometry x="560" y="130" width="120" height="60" as="geometry" />
        </mxCell>
        <mxCell id="I1tFR8Xuxyrx6pCMJgD5-18" style="edgeStyle=orthogonalEdgeStyle;rounded=0;orthogonalLoop=1;jettySize=auto;html=1;" parent="1" source="I1tFR8Xuxyrx6pCMJgD5-16" target="I1tFR8Xuxyrx6pCMJgD5-3" edge="1">
          <mxGeometry relative="1" as="geometry" />
        </mxCell>
        <mxCell id="I1tFR8Xuxyrx6pCMJgD5-16" value="Atiende" style="shape=rhombus;perimeter=rhombusPerimeter;whiteSpace=wrap;html=1;align=center;" parent="1" vertex="1">
          <mxGeometry x="390" y="220" width="120" height="60" as="geometry" />
        </mxCell>
        <mxCell id="I1tFR8Xuxyrx6pCMJgD5-20" value="Nombre" style="ellipse;whiteSpace=wrap;html=1;align=center;" parent="1" vertex="1">
          <mxGeometry x="-50" y="40" width="100" height="40" as="geometry" />
        </mxCell>
        <mxCell id="I1tFR8Xuxyrx6pCMJgD5-21" value="Tipo de documento" style="ellipse;whiteSpace=wrap;html=1;align=center;" parent="1" vertex="1">
          <mxGeometry x="40" y="10" width="100" height="40" as="geometry" />
        </mxCell>
        <mxCell id="I1tFR8Xuxyrx6pCMJgD5-22" value="Numero de documento" style="ellipse;whiteSpace=wrap;html=1;align=center;" parent="1" vertex="1">
          <mxGeometry x="-110" y="90" width="100" height="40" as="geometry" />
        </mxCell>
        <mxCell id="I1tFR8Xuxyrx6pCMJgD5-25" style="edgeStyle=orthogonalEdgeStyle;rounded=0;orthogonalLoop=1;jettySize=auto;html=1;entryX=0.424;entryY=1.065;entryDx=0;entryDy=0;entryPerimeter=0;" parent="1" source="I1tFR8Xuxyrx6pCMJgD5-1" target="I1tFR8Xuxyrx6pCMJgD5-22" edge="1">
          <mxGeometry relative="1" as="geometry" />
        </mxCell>
        <mxCell id="I1tFR8Xuxyrx6pCMJgD5-26" value="ID" style="ellipse;whiteSpace=wrap;html=1;align=center;" parent="1" vertex="1">
          <mxGeometry x="-140" y="170" width="100" height="40" as="geometry" />
        </mxCell>
        <mxCell id="I1tFR8Xuxyrx6pCMJgD5-29" value="Telefono" style="ellipse;whiteSpace=wrap;html=1;align=center;" parent="1" vertex="1">
          <mxGeometry x="-90" y="230" width="100" height="40" as="geometry" />
        </mxCell>
        <mxCell id="I1tFR8Xuxyrx6pCMJgD5-30" value="Email" style="ellipse;whiteSpace=wrap;html=1;align=center;" parent="1" vertex="1">
          <mxGeometry x="-50" y="300" width="100" height="40" as="geometry" />
        </mxCell>
        <mxCell id="I1tFR8Xuxyrx6pCMJgD5-37" value="Apellido" style="ellipse;whiteSpace=wrap;html=1;align=center;" parent="1" vertex="1">
          <mxGeometry x="70" y="310" width="100" height="40" as="geometry" />
        </mxCell>
        <mxCell id="I1tFR8Xuxyrx6pCMJgD5-39" value="Hora" style="ellipse;whiteSpace=wrap;html=1;align=center;" parent="1" vertex="1">
          <mxGeometry x="440" y="10" width="100" height="40" as="geometry" />
        </mxCell>
        <mxCell id="I1tFR8Xuxyrx6pCMJgD5-40" value="Estado" style="ellipse;whiteSpace=wrap;html=1;align=center;" parent="1" vertex="1">
          <mxGeometry x="540" y="20" width="100" height="40" as="geometry" />
        </mxCell>
        <mxCell id="I1tFR8Xuxyrx6pCMJgD5-41" value="Fecha" style="ellipse;whiteSpace=wrap;html=1;align=center;" parent="1" vertex="1">
          <mxGeometry x="340" y="10" width="100" height="40" as="geometry" />
        </mxCell>
        <mxCell id="I1tFR8Xuxyrx6pCMJgD5-42" value="ID" style="ellipse;whiteSpace=wrap;html=1;align=center;" parent="1" vertex="1">
          <mxGeometry x="240" y="30" width="100" height="40" as="geometry" />
        </mxCell>
        <mxCell id="I1tFR8Xuxyrx6pCMJgD5-48" value="Apellido" style="ellipse;whiteSpace=wrap;html=1;align=center;" parent="1" vertex="1">
          <mxGeometry x="400" y="460" width="100" height="40" as="geometry" />
        </mxCell>
        <mxCell id="I1tFR8Xuxyrx6pCMJgD5-49" value="Email" style="ellipse;whiteSpace=wrap;html=1;align=center;" parent="1" vertex="1">
          <mxGeometry x="190" y="440" width="100" height="40" as="geometry" />
        </mxCell>
        <mxCell id="I1tFR8Xuxyrx6pCMJgD5-50" value="Telefono" style="ellipse;whiteSpace=wrap;html=1;align=center;" parent="1" vertex="1">
          <mxGeometry x="650" y="350" width="100" height="40" as="geometry" />
        </mxCell>
        <mxCell id="I1tFR8Xuxyrx6pCMJgD5-51" value="ID" style="ellipse;whiteSpace=wrap;html=1;align=center;" parent="1" vertex="1">
          <mxGeometry x="560" y="440" width="100" height="40" as="geometry" />
        </mxCell>
        <mxCell id="I1tFR8Xuxyrx6pCMJgD5-52" value="Numero de documento" style="ellipse;whiteSpace=wrap;html=1;align=center;" parent="1" vertex="1">
          <mxGeometry x="310" y="500" width="100" height="40" as="geometry" />
        </mxCell>
        <mxCell id="I1tFR8Xuxyrx6pCMJgD5-53" value="Nombre" style="ellipse;whiteSpace=wrap;html=1;align=center;" parent="1" vertex="1">
          <mxGeometry x="190" y="350" width="100" height="40" as="geometry" />
        </mxCell>
        <mxCell id="I1tFR8Xuxyrx6pCMJgD5-54" value="Tipo de documento" style="ellipse;whiteSpace=wrap;html=1;align=center;" parent="1" vertex="1">
          <mxGeometry x="490" y="490" width="100" height="40" as="geometry" />
        </mxCell>
        <mxCell id="I1tFR8Xuxyrx6pCMJgD5-73" value="ID_Turno" style="ellipse;whiteSpace=wrap;html=1;align=center;" parent="1" vertex="1">
          <mxGeometry x="840" y="30" width="100" height="40" as="geometry" />
        </mxCell>
        <mxCell id="I1tFR8Xuxyrx6pCMJgD5-74" value="Fecha_Solicitud" style="ellipse;whiteSpace=wrap;html=1;align=center;" parent="1" vertex="1">
          <mxGeometry x="980" y="140" width="100" height="40" as="geometry" />
        </mxCell>
        <mxCell id="I1tFR8Xuxyrx6pCMJgD5-75" value="ID_Historial" style="ellipse;whiteSpace=wrap;html=1;align=center;" parent="1" vertex="1">
          <mxGeometry x="740" y="20" width="100" height="40" as="geometry" />
        </mxCell>
        <mxCell id="I1tFR8Xuxyrx6pCMJgD5-76" value="ID_Empleado" style="ellipse;whiteSpace=wrap;html=1;align=center;" parent="1" vertex="1">
          <mxGeometry x="900" y="80" width="100" height="40" as="geometry" />
        </mxCell>
        <mxCell id="I1tFR8Xuxyrx6pCMJgD5-77" value="Fecha_Atencion" style="ellipse;whiteSpace=wrap;html=1;align=center;" parent="1" vertex="1">
          <mxGeometry x="950" y="190" width="100" height="40" as="geometry" />
        </mxCell>
        <mxCell id="I1tFR8Xuxyrx6pCMJgD5-78" value="Estado_Turno" style="ellipse;whiteSpace=wrap;html=1;align=center;" parent="1" vertex="1">
          <mxGeometry x="890" y="250" width="100" height="40" as="geometry" />
        </mxCell>
        <mxCell id="I1tFR8Xuxyrx6pCMJgD5-79" value="Duracion" style="ellipse;whiteSpace=wrap;html=1;align=center;" parent="1" vertex="1">
          <mxGeometry x="790" y="290" width="100" height="40" as="geometry" />
        </mxCell>
        <mxCell id="I1tFR8Xuxyrx6pCMJgD5-80" value="Tipo_Servicio" style="ellipse;whiteSpace=wrap;html=1;align=center;" parent="1" vertex="1">
          <mxGeometry x="700" y="260" width="100" height="40" as="geometry" />
        </mxCell>
        <mxCell id="I1tFR8Xuxyrx6pCMJgD5-81" value="ID_Clente" style="ellipse;whiteSpace=wrap;html=1;align=center;" parent="1" vertex="1">
          <mxGeometry x="670" y="70" width="100" height="40" as="geometry" />
        </mxCell>
      </root>
    </mxGraphModel>
  </diagram>
</mxfile>
